<svg width="860" height="1038" viewBox="0 0 860 1038" fill="none" xmlns="http://www.w3.org/2000/svg">
<path d="M635.844 88.9973C637.778 90.6345 639.711 92.2717 641.704 93.9585C643.69 95.6217 645.676 97.2849 647.722 98.9985C665.696 114.414 680.371 131.569 694.938 150.139C696.591 152.241 696.591 152.241 698.278 154.385C705.354 163.542 711.203 172.956 717.026 182.964C726.689 197.785 737.827 203.908 753.209 211.723C796.583 234.042 829.634 278.207 845.901 323.416C865.533 388.204 865.707 455.35 833.506 515.945C827.666 526.259 821.596 536.347 814.596 545.929C812.918 545.929 811.24 545.929 809.511 545.929C809.511 547.596 809.511 549.262 809.511 550.979C803.472 552.557 803.472 552.557 796.798 553.504C790.787 547.534 790.148 542.745 788.428 534.668C784.598 516.688 780.903 500.333 766.288 487.855C759.603 483.685 753.288 480.771 745.948 477.755C743.298 480.752 740.65 483.751 738.002 486.75C736.38 488.586 734.757 490.421 733.086 492.313C727.492 498.707 722.024 505.198 716.599 511.733C712.895 515.629 712.895 515.629 707.645 518.768C702.109 522.857 702.109 522.857 701.536 529.657C701.574 532.239 701.612 534.821 701.651 537.482C701.676 541.887 701.676 541.887 701.703 546.38C701.805 551.161 701.805 551.161 701.91 556.039C701.951 561.085 701.991 566.131 702.03 571.178C702.097 578.277 702.209 585.376 702.323 592.475C702.567 608.103 702.741 623.733 702.864 639.363C702.877 641.039 702.89 642.715 702.904 644.442C703.135 679.731 701.12 714.161 691.919 748.401C691.369 750.499 690.82 752.598 690.253 754.76C664.373 850.09 602.77 934.092 517.153 984.417C451.29 1021.86 378.272 1036.03 303.006 1036.22C300.1 1036.24 297.193 1036.25 294.198 1036.27C284.711 1036.32 275.224 1036.35 265.737 1036.38C260.846 1036.39 260.846 1036.39 255.856 1036.41C240.407 1036.45 224.958 1036.49 209.509 1036.51C191.75 1036.54 173.992 1036.6 156.233 1036.71C140.775 1036.79 125.317 1036.82 109.858 1036.83C103.306 1036.84 96.7547 1036.87 90.2032 1036.92C81.0636 1036.98 71.9261 1036.98 62.7864 1036.96C58.7385 1037.01 58.7385 1037.01 54.6087 1037.06C39.6281 1036.95 30.5409 1035.86 18.7831 1025.67C1.82711 1008.07 0.230319 992.727 0.322494 969.449C0.312767 966.842 0.30303 964.236 0.293009 961.55C0.266777 952.817 0.276899 944.084 0.286995 935.351C0.275942 929.087 0.262763 922.824 0.247618 916.56C0.217076 901.304 0.210629 886.049 0.216581 870.794C0.221121 858.373 0.216686 845.952 0.205873 833.532C0.20436 831.761 0.202816 829.991 0.201256 828.167C0.198175 824.57 0.195116 820.972 0.192023 817.375C0.164367 783.632 0.169844 749.889 0.18535 716.147C0.198455 685.379 0.169971 654.612 0.121531 623.844C0.0720715 592.184 0.0513351 560.524 0.0608537 528.863C0.0656915 511.117 0.0595992 493.371 0.0234156 475.624C-0.0103413 458.899 -0.00341701 442.174 0.0295454 425.449C0.0355146 419.347 0.0287791 413.244 0.00762563 407.142C-0.135353 362.645 1.61318 318.162 15.446 275.441C16.0923 273.387 16.7385 271.332 17.4044 269.216C45.9412 181.567 104.368 104.149 184.048 56.0838C185.893 54.9694 187.739 53.8551 189.641 52.7069C329.634 -29.8128 510.894 -13.7308 635.844 88.9973Z" fill="#59AF46"/>
<path d="M1.3298 539.277C54.7228 516.552 39.1212 522.865 39.1212 522.865C39.1212 522.865 39.1624 522.562 54.7228 516.552C119.574 495.085 193.752 499.373 255.752 527.688C271.473 535.831 285.228 545.682 298.806 556.952C300.53 558.296 302.254 559.641 304.03 561.026C336.131 587.012 357.546 626.121 367.454 665.526C367.902 667.179 368.349 668.832 368.809 670.535C385.663 737.348 365.047 806.818 330.906 864.526C320.791 881.052 309.083 895.888 296.263 910.449C294.72 912.288 293.176 914.127 291.586 916.021C280.664 927.2 278.122 929.725 265.409 942.35C258.364 949.346 257.782 949.925 251.425 956.238C219.568 996.986 198.032 1009.26 198.032 1009.26C189.131 1016.84 187.862 1019.36 178.963 1026.94C178.963 1027.77 167.522 1035.75 162.437 1035.77C140.821 1035.89 158.719 1035.51 137.011 1035.77C126.973 1035.8 116.539 1035.72 106.501 1035.77C96.8073 1035.83 88.2266 1035.76 78.5329 1035.77C74.8412 1035.78 72.0545 1035.75 68.3628 1035.77C63.1778 1035.81 55.7501 1035.78 50.5651 1035.77C47.6179 1035.79 43.9827 1035.76 40.9462 1035.77C30.1682 1034.98 19.3346 1026.98 14.3898 1017.37C13.1739 1015.83 11.9579 1014.29 10.7051 1012.71C9.45643 1011.17 8.62857 1010.84 7.34201 1009.26C0.940969 1000.48 1.01001 992.917 1.0067 982.146C1.00273 980.409 0.998768 978.672 0.994682 976.883C0.984492 971.026 0.992597 965.168 1.00057 959.31C0.997126 955.114 0.992599 950.917 0.98707 946.721C0.975403 935.231 0.980023 923.741 0.988034 912.25C0.994515 900.026 0.988482 887.801 0.98451 875.576C0.979862 854.83 0.986002 834.084 0.998088 813.338C1.01011 792.481 1.01062 771.624 0.998088 750.768C0.91668 612.077 -0.803885 677.953 1.3298 539.277Z" fill="#057D31"/>
<path d="M464.203 176.336C503.049 210.129 523.259 252.947 527.29 303.531C529.073 349.817 515.051 395.582 483.59 430.254C452.788 462.735 412.773 483.802 367.339 486.267C316.834 487.455 275.544 474.252 236.527 441.261C217.315 422.858 203.444 401.549 194.218 376.756C193.222 374.204 192.225 371.652 191.199 369.023C175.549 323.26 182.077 275.357 202.322 232.201C225.744 188.354 262.958 159.316 310.102 144.034C364.829 130.819 419.77 141.613 464.203 176.336Z" fill="#F9F4EE"/>
<path d="M685.403 197.009C687.662 197.011 689.922 197.012 692.25 197.014C702.209 197.081 711.622 197.014 720.521 198.745C724.335 198.745 725.555 200.008 728.149 200.008C787.898 223.995 820.226 265.219 843.288 318.681C864.781 378.413 867.322 446.773 840.4 505.171C832.956 520.243 825.797 533.599 815.866 547.192C813.324 549.717 814.083 548.963 812.052 550.979C809.51 553.504 810.781 552.242 809.51 553.504C804.425 557.292 804.425 558.554 798.068 558.554C791.712 552.242 789.618 545.169 787.898 537.092C784.068 519.112 780.902 502.858 766.287 490.38C759.602 486.21 753.287 483.296 745.947 480.28C743.297 483.277 740.649 486.276 738.001 489.275C736.526 490.945 735.051 492.615 733.532 494.335C730.559 497.728 727.608 501.142 724.755 504.636C715.84 515.403 706.489 523.925 695.096 532.042C693.447 533.221 691.798 534.4 690.098 535.615C644.715 567.306 644.715 567.306 619.406 565.133C608.479 562.187 601.402 556.188 593.395 548.454C590.607 545.832 590.607 545.832 587.763 543.158C563.031 518.009 548.197 486.47 540.001 452.505C539.556 450.833 539.111 449.161 538.652 447.439C534.086 428.335 533.97 409.194 533.974 389.674C533.963 383.911 533.87 378.153 533.774 372.391C533.405 324.815 546.547 280.546 580.385 245.607C583.839 242.155 587.344 238.755 590.852 235.357C592.583 233.616 594.313 231.875 596.096 230.08C620.944 206.586 651.709 196.542 685.403 197.009Z" fill="#FCBD1A"/>
<path d="M532.615 380.462C546.673 388.745 561.476 397.087 574.073 407.466C621.206 444.71 679.749 464.694 734.494 471.666C747.261 476.576 742.149 474.107 747.261 476.576C735.593 513.132 686.646 541.635 657.83 558.366C643.534 566.666 626.376 571.338 613.655 563.903C602.212 557.716 599.728 555.08 593.269 548.977C590.452 546.386 589.436 545.231 589.436 545.231C583.075 541.514 545.899 493.946 539.107 451.094C538.515 449.102 538.398 448.111 537.788 446.058C532.267 425.037 532.427 402.024 532.615 380.462Z" fill="#E75D22"/>
<path d="M387.646 265.263C400.955 276.109 409.88 288.888 411.947 306.116C412.506 323.69 408.69 337.699 397.221 351.263C385.202 363.28 371.697 368.651 354.811 369C338.509 368.928 324.709 364.148 312.767 352.841C301.856 340.374 296.963 326.978 297 310.603C297.003 309.449 297.005 308.296 297.008 307.108C297.21 298.065 298.865 291.141 303.813 283.428C304.744 281.838 305.676 280.248 306.635 278.61C326.607 252.62 360.176 245.657 387.646 265.263Z" fill="#2E2E2E"/>
<ellipse cx="377.5" cy="295" rx="19.5" ry="19" fill="#F9F4EE"/>
<path d="M462.993 173.48C501.79 205.234 521.974 245.468 526 293H462.993H354.929H249.063H201.445H184.147C184.147 293 181.225 266.526 201.445 225.974C224.837 184.773 262.003 157.488 309.088 143.128C363.746 130.71 418.616 140.853 462.993 173.48Z" fill="#2E2E2E"/>
<path d="M462.993 173.48C501.79 205.234 521.974 245.468 526 293H462.993H354.929H249.063H201.445H184.147C184.147 293 181.225 266.526 201.445 225.974C224.837 184.773 262.003 157.488 309.088 143.128C363.746 130.71 418.616 140.853 462.993 173.48Z" fill="#2E2E2E"/>
<path d="M246.007 455.52C207.21 423.766 187.026 383.532 183 336L246.007 336L354.071 336L459.937 336L507.555 336L524.853 336C524.853 336 527.775 362.474 507.555 403.026C484.163 444.227 446.997 471.512 399.912 485.872C345.254 498.29 290.384 488.147 246.007 455.52Z" fill="#2E2E2E"/>
</svg>
