<svg width="340" height="410" viewBox="0 0 340 410" fill="none" xmlns="http://www.w3.org/2000/svg">
<path d="M251.38 35.1849C252.144 35.8321 252.909 36.4794 253.697 37.1463C254.482 37.8038 255.267 38.4614 256.076 39.1389C263.182 45.2333 268.983 52.0155 274.743 59.3572C275.396 60.1881 275.396 60.1881 276.063 61.0357C278.86 64.656 281.173 68.3778 283.475 72.3344C287.295 78.1941 291.699 80.6147 297.78 83.7044C314.928 92.5283 327.994 109.989 334.426 127.862C342.187 153.476 342.256 180.022 329.525 203.978C327.216 208.056 324.817 212.044 322.049 215.832C321.386 215.832 320.722 215.832 320.039 215.832C320.039 216.491 320.039 217.15 320.039 217.829C317.652 218.453 317.652 218.453 315.013 218.827C312.636 216.467 312.384 214.574 311.704 211.38C310.19 204.272 308.729 197.806 302.951 192.873C300.308 191.224 297.811 190.072 294.909 188.88C293.862 190.065 292.815 191.25 291.768 192.436C291.127 193.162 290.485 193.887 289.824 194.635C287.613 197.163 285.451 199.729 283.306 202.313C281.842 203.853 281.842 203.853 279.766 205.094C277.578 206.711 277.578 206.711 277.351 209.399C277.366 210.42 277.381 211.441 277.396 212.493C277.407 214.234 277.407 214.234 277.417 216.011C277.458 217.901 277.458 217.901 277.499 219.829C277.515 221.824 277.531 223.819 277.546 225.814C277.573 228.621 277.617 231.428 277.662 234.234C277.759 240.413 277.828 246.592 277.876 252.771C277.881 253.434 277.887 254.097 277.892 254.779C277.983 268.731 277.187 282.343 273.549 295.879C273.332 296.709 273.114 297.539 272.891 298.393C262.659 336.082 238.304 369.292 204.456 389.188C178.417 403.99 149.549 409.593 119.793 409.669C118.644 409.675 117.495 409.682 116.311 409.689C112.56 409.708 108.809 409.72 105.059 409.73C103.125 409.736 103.125 409.736 101.152 409.742C95.0445 409.761 88.9369 409.775 82.8292 409.784C75.8082 409.794 68.7875 409.82 61.7666 409.86C55.6551 409.894 49.5437 409.906 43.4322 409.91C40.842 409.915 38.2518 409.926 35.6617 409.945C32.0484 409.969 28.4359 409.968 24.8225 409.961C23.2222 409.98 23.2222 409.98 21.5895 410C15.6669 409.958 12.0743 409.526 7.42585 405.499C0.722344 398.539 0.0910564 392.473 0.127497 383.27C0.123652 382.24 0.119802 381.209 0.115841 380.148C0.10547 376.695 0.109472 373.243 0.113463 369.79C0.109093 367.314 0.103883 364.837 0.0978952 362.361C0.0858205 356.33 0.083272 350.298 0.0856249 344.267C0.0874197 339.357 0.0856664 334.446 0.0813916 329.536C0.0807933 328.836 0.0801828 328.136 0.0795664 327.415C0.0783483 325.993 0.0771387 324.57 0.0759159 323.148C0.0649821 309.808 0.0671477 296.468 0.0732778 283.128C0.0784588 270.964 0.0671976 258.8 0.0480469 246.636C0.0284933 234.119 0.0202953 221.602 0.0240584 209.085C0.025971 202.069 0.0235624 195.053 0.00925732 188.037C-0.00408842 181.425 -0.00135091 174.813 0.0116807 168.201C0.0140406 165.788 0.0113778 163.375 0.00301478 160.963C-0.0535114 143.371 0.637767 125.785 6.10654 108.895C6.36205 108.083 6.61755 107.271 6.8808 106.434C18.1628 71.7822 41.2616 41.1752 72.763 22.1726C73.4926 21.732 74.2223 21.2914 74.9741 20.8375C130.32 -11.7866 201.981 -5.42856 251.38 35.1849Z" fill="#59AF46"/>
<path d="M0.52619 213.203C21.635 204.218 15.467 206.714 15.467 206.714C15.467 206.714 15.4833 206.594 21.635 204.218C47.2738 195.731 76.6 197.427 101.111 208.621C107.327 211.84 112.765 215.735 118.133 220.19C118.814 220.722 119.496 221.253 120.198 221.801C132.889 232.075 141.356 247.536 145.273 263.115C145.45 263.769 145.627 264.422 145.809 265.095C152.472 291.51 144.321 318.975 130.823 341.789C126.824 348.323 122.196 354.189 117.128 359.945C116.517 360.672 115.907 361.399 115.278 362.148C110.961 366.568 109.955 367.566 104.93 372.557C102.144 375.323 101.914 375.552 99.401 378.048C86.8062 394.158 78.2921 399.011 78.2921 399.011C74.7729 402.006 74.2713 403.004 70.7532 405.998C70.7532 406.328 66.2298 409.481 64.2195 409.492C55.6737 409.539 62.7497 409.389 54.1676 409.492C50.1991 409.503 46.0738 409.47 42.1054 409.492C38.2731 409.514 34.8807 409.487 31.0483 409.492C29.5888 409.496 28.4871 409.481 27.0276 409.492C24.9777 409.507 22.0412 409.493 19.9913 409.492C18.8261 409.497 17.3889 409.488 16.1884 409.492C11.9274 409.177 7.64437 406.015 5.68945 402.214C5.20873 401.607 4.72801 401 4.23272 400.374C3.73904 399.767 3.41175 399.636 2.90311 399.011C0.372465 395.54 0.399761 392.549 0.398452 388.29C0.396884 387.604 0.395316 386.917 0.3937 386.21C0.389672 383.894 0.392876 381.578 0.396029 379.262C0.394666 377.603 0.392877 375.944 0.390691 374.285C0.386078 369.743 0.387905 365.2 0.391072 360.657C0.393634 355.824 0.391249 350.991 0.389679 346.158C0.387841 337.956 0.390268 329.754 0.395047 321.552C0.399798 313.307 0.400001 305.061 0.395047 296.815C0.362862 241.984 -0.31736 268.028 0.52619 213.203Z" fill="#057D31"/>
<path d="M183.521 69.7141C198.878 83.0741 206.868 100.002 208.462 120.001C209.167 138.3 203.623 156.393 191.185 170.1C179.008 182.942 163.188 191.271 145.226 192.245C125.259 192.715 108.935 187.495 93.5096 174.452C85.9139 167.177 80.4303 158.752 76.7827 148.95C76.3888 147.941 75.9948 146.932 75.589 145.893C69.4018 127.801 71.9828 108.862 79.9867 91.8003C89.2463 74.4654 103.959 62.9855 122.597 56.9435C144.234 51.719 165.954 55.9866 183.521 69.7141Z" fill="#FBF5ED"/>
<path d="M270.973 77.887C271.867 77.8876 272.76 77.8883 273.681 77.889C277.618 77.9154 281.339 77.889 284.858 78.5732C286.365 78.5732 286.848 79.0724 287.873 79.0724C311.495 88.5557 324.276 104.854 333.393 125.99C341.89 149.605 342.895 176.631 332.252 199.718C329.309 205.677 326.478 210.957 322.552 216.331C321.547 217.329 321.847 217.031 321.044 217.829C320.039 218.827 320.542 218.328 320.039 218.827C318.029 220.324 318.029 220.823 315.516 220.823C313.003 218.328 312.175 215.532 311.495 212.338C309.981 205.23 308.729 198.804 302.951 193.871C300.308 192.222 297.811 191.07 294.909 189.878C293.862 191.063 292.815 192.248 291.768 193.434C291.185 194.094 290.602 194.754 290.001 195.434C288.826 196.776 287.659 198.126 286.531 199.507C283.007 203.764 279.31 207.133 274.806 210.342C274.154 210.808 273.502 211.274 272.83 211.755C254.888 224.283 254.888 224.283 244.882 223.424C240.562 222.26 237.764 219.888 234.598 216.83C233.496 215.794 233.496 215.794 232.372 214.736C222.594 204.794 216.729 192.325 213.489 178.897C213.313 178.236 213.137 177.575 212.956 176.894C211.151 169.341 211.105 161.774 211.106 154.057C211.102 151.778 211.065 149.502 211.027 147.224C210.881 128.415 216.077 110.913 229.455 97.1001C230.82 95.7355 232.206 94.3911 233.593 93.0479C234.277 92.3594 234.961 91.671 235.666 90.9617C245.49 81.6734 257.653 77.7023 270.973 77.887Z" fill="#FCBD1A"/>
<path d="M164.07 94.2644C172.66 101.286 178.421 109.56 179.756 120.714C180.117 132.092 177.653 141.162 170.25 149.944C162.492 157.724 153.774 161.202 142.874 161.428C132.351 161.381 123.443 158.286 115.734 150.966C108.692 142.894 105.533 134.221 105.557 123.619C105.558 122.872 105.56 122.126 105.562 121.356C105.692 115.502 106.761 111.019 109.954 106.025C110.556 104.996 111.157 103.966 111.776 102.905C124.668 86.0788 146.338 81.5705 164.07 94.2644Z" fill="#2E2E2E"/>
<path d="M210.976 149.948C216.497 153.284 222.313 156.646 227.248 160.804C245.718 175.733 268.774 183.889 290.386 186.883C295.412 188.88 293.401 187.882 295.412 188.88C290.64 203.28 271.166 214.335 259.701 220.824C254.013 224.043 247.21 225.815 242.214 222.82C237.717 220.325 236.746 219.272 234.219 216.831C233.117 215.794 232.72 215.333 232.72 215.333C230.222 213.836 215.733 194.869 213.235 177.899C213.009 177.109 212.967 176.717 212.735 175.903C210.644 167.568 210.807 158.472 210.976 149.948Z" fill="#E75D22"/>
<ellipse cx="157.702" cy="113.512" rx="12.5648" ry="12.4781" fill="#F9F4EE"/>
</svg>
