<svg width="900" height="1086" viewBox="0 0 900 1086" fill="none" xmlns="http://www.w3.org/2000/svg">
<path d="M665.418 93.1364C667.442 94.8498 669.466 96.5631 671.551 98.3284C673.629 100.069 675.708 101.81 677.849 103.603C696.659 119.735 712.016 137.688 727.261 157.122C728.991 159.321 728.991 159.321 730.757 161.565C738.161 171.148 744.283 181 750.377 191.474C760.489 206.984 772.145 213.392 788.242 221.57C833.634 244.928 868.222 291.147 885.246 338.458C905.791 406.26 905.973 476.529 872.274 539.942C866.163 550.735 859.811 561.293 852.485 571.321C850.729 571.321 848.972 571.321 847.163 571.321C847.163 573.065 847.163 574.809 847.163 576.606C840.844 578.257 840.844 578.257 833.859 579.248C827.568 573.001 826.9 567.989 825.1 559.536C821.092 540.719 817.225 523.604 801.93 510.545C794.934 506.182 788.325 503.132 780.643 499.976C777.87 503.112 775.099 506.251 772.328 509.389C770.63 511.31 768.933 513.232 767.183 515.211C761.329 521.902 755.607 528.695 749.93 535.535C746.053 539.612 746.053 539.612 740.559 542.897C734.765 547.176 734.765 547.176 734.166 554.292C734.205 556.994 734.245 559.697 734.286 562.481C734.313 567.09 734.313 567.09 734.34 571.793C734.448 576.796 734.448 576.796 734.558 581.901C734.6 587.182 734.642 592.463 734.683 597.744C734.753 605.174 734.871 612.602 734.989 620.031C735.245 636.387 735.427 652.744 735.555 669.101C735.569 670.855 735.583 672.608 735.598 674.415C735.839 711.346 733.731 747.378 724.101 783.21C723.526 785.406 722.951 787.602 722.359 789.865C695.274 889.629 630.806 977.538 541.207 1030.2C472.28 1069.38 395.867 1084.22 317.1 1084.42C314.058 1084.43 311.016 1084.45 307.882 1084.47C297.954 1084.52 288.025 1084.55 278.097 1084.58C272.978 1084.6 272.978 1084.6 267.756 1084.61C251.589 1084.66 235.422 1084.7 219.254 1084.72C200.669 1084.75 182.085 1084.82 163.5 1084.92C147.323 1085.01 131.145 1085.04 114.968 1085.06C108.111 1085.07 101.255 1085.1 94.3987 1085.15C84.834 1085.21 75.2716 1085.21 65.7067 1085.19C61.4705 1085.24 61.4705 1085.24 57.1487 1085.29C41.4713 1085.18 31.9614 1084.04 19.6567 1073.38C1.91209 1054.96 0.241032 1038.9 0.337494 1014.54C0.327315 1011.81 0.317125 1009.08 0.306637 1006.27C0.279186 997.134 0.289779 987.995 0.300344 978.856C0.288776 972.3 0.274985 965.745 0.259135 959.19C0.227172 943.225 0.220426 927.26 0.226654 911.295C0.231405 898.297 0.226764 885.299 0.215449 872.3C0.213865 870.448 0.212249 868.595 0.210617 866.686C0.207393 862.922 0.204191 859.157 0.200954 855.392C0.172012 820.08 0.177744 784.768 0.193971 749.455C0.207686 717.257 0.177876 685.059 0.127183 652.86C0.0754237 619.727 0.0537228 586.594 0.0636841 553.461C0.068747 534.889 0.0623713 516.318 0.0245047 497.746C-0.0108223 480.243 -0.00357595 462.74 0.0309196 445.237C0.0371664 438.851 0.0301177 432.464 0.00798031 426.078C-0.141648 379.512 1.68821 332.96 16.1644 288.252C16.8407 286.102 17.5171 283.952 18.2139 281.737C48.078 190.012 109.222 108.993 192.608 58.6921C194.54 57.5259 196.471 56.3597 198.461 55.1581C344.966 -31.1997 534.657 -14.3697 665.418 93.1364Z" fill="#59AF46"/>
<path d="M1.39151 564.36C57.2679 540.578 40.9407 547.184 40.9407 547.184C40.9407 547.184 40.9838 546.866 57.2679 540.578C125.135 518.111 202.764 522.599 267.647 552.231C284.099 560.753 298.495 571.062 312.704 582.856C314.508 584.263 316.312 585.67 318.171 587.119C351.765 614.315 374.176 655.242 384.545 696.48C385.013 698.21 385.481 699.94 385.963 701.722C403.601 771.643 382.026 844.344 346.296 904.736C335.711 922.031 323.459 937.557 310.043 952.795C308.428 954.719 306.812 956.644 305.148 958.626C293.718 970.325 291.058 972.968 277.754 986.18C270.381 993.502 269.771 994.107 263.119 1000.71C229.78 1043.36 207.243 1056.2 207.243 1056.2C197.927 1064.13 196.6 1066.77 187.287 1074.7C187.287 1075.57 175.313 1083.92 169.992 1083.95C147.37 1084.07 166.101 1083.68 143.384 1083.95C132.879 1083.98 121.959 1083.89 111.454 1083.95C101.31 1084.01 92.3301 1083.94 82.1855 1083.95C78.322 1083.96 75.4057 1083.92 71.5424 1083.95C66.1162 1083.99 58.3431 1083.95 52.9168 1083.95C49.8325 1083.96 46.0282 1083.94 42.8505 1083.95C31.5712 1083.11 20.2338 1074.74 15.059 1064.68C13.7865 1063.08 12.514 1061.47 11.2029 1059.81C9.89612 1058.2 9.02976 1057.86 7.68336 1056.2C0.984588 1047.02 1.05684 1039.1 1.05338 1027.83C1.04923 1026.01 1.04508 1024.19 1.0408 1022.32C1.03014 1016.19 1.03862 1010.06 1.04696 1003.93C1.04336 999.537 1.03862 995.146 1.03283 990.754C1.02062 978.729 1.02546 966.705 1.03384 954.68C1.04062 941.887 1.03431 929.094 1.03015 916.3C1.02529 894.589 1.03171 872.878 1.04436 851.167C1.05694 829.34 1.05748 807.513 1.04436 785.687C0.959169 640.546 -0.841423 709.485 1.39151 564.36Z" fill="#057D31"/>
<path d="M485.794 184.537C526.446 219.902 547.596 264.712 551.814 317.649C553.68 366.087 539.006 413.981 506.082 450.265C473.848 484.257 431.971 506.304 384.424 508.883C331.57 510.127 288.36 496.31 247.528 461.784C227.422 442.526 212.906 420.225 203.251 394.279C202.208 391.608 201.165 388.938 200.091 386.187C183.713 338.295 190.545 288.164 211.732 243.001C236.243 197.114 275.188 166.726 324.525 150.733C381.797 136.903 439.293 148.2 485.794 184.537Z" fill="#F9F4EE"/>
<path d="M717.282 206.172C719.647 206.174 722.012 206.175 724.449 206.177C734.87 206.247 744.721 206.177 754.034 207.989C758.025 207.989 759.303 209.31 762.017 209.31C824.545 234.413 858.377 277.555 882.511 333.503C905.003 396.013 907.663 467.552 879.489 528.667C871.699 544.44 864.206 558.417 853.814 572.642C851.153 575.284 851.948 574.495 849.823 576.606C847.162 579.248 848.492 577.927 847.162 579.248C841.84 583.212 841.84 584.533 835.188 584.533C828.536 577.927 826.345 570.525 824.545 562.072C820.537 543.256 817.224 526.247 801.928 513.188C794.933 508.824 788.324 505.775 780.642 502.618C777.869 505.755 775.098 508.893 772.327 512.032C770.784 513.779 769.24 515.527 767.65 517.327C764.539 520.878 761.45 524.451 758.465 528.107C749.136 539.375 739.349 548.294 727.426 556.788C725.7 558.022 723.975 559.256 722.196 560.527C674.702 593.692 674.702 593.692 648.216 591.418C636.781 588.335 629.374 582.057 620.995 573.963C618.078 571.22 618.078 571.22 615.101 568.42C589.219 542.102 573.695 509.096 565.118 473.552C564.652 471.802 564.186 470.052 563.706 468.249C558.927 448.257 558.806 428.226 558.81 407.798C558.799 401.767 558.702 395.741 558.601 389.712C558.214 339.922 571.968 293.594 607.38 257.03C610.995 253.418 614.663 249.859 618.334 246.304C620.145 244.481 621.956 242.659 623.822 240.781C649.825 216.195 682.022 205.683 717.282 206.172Z" fill="#FCBD1A"/>
<path d="M434.304 249.524C457.043 268.112 472.294 290.012 475.826 319.538C476.781 349.657 470.26 373.665 450.663 396.911C430.127 417.506 407.051 426.711 378.198 427.309C350.342 427.186 326.762 418.993 306.357 399.615C287.714 378.25 279.353 355.292 279.416 327.227C279.421 325.251 279.425 323.274 279.429 321.237C279.776 305.74 282.603 293.873 291.057 280.655C292.649 277.93 294.24 275.205 295.88 272.397C330.006 227.856 387.366 215.922 434.304 249.524Z" fill="#2E2E2E"/>
<path d="M558.466 396.921C573.082 405.752 588.476 414.652 601.539 425.658C650.431 465.175 711.463 486.764 768.67 494.691C781.974 499.976 776.652 497.333 781.974 499.976C769.342 538.095 717.793 567.357 687.445 584.533C672.389 593.054 654.38 597.745 641.155 589.818C629.252 583.212 626.683 580.424 619.994 573.963C617.077 571.22 616.026 570 616.026 570C609.413 566.036 571.059 515.83 564.446 470.909C563.849 468.818 563.738 467.779 563.123 465.624C557.589 443.563 558.021 419.483 558.466 396.921Z" fill="#E75D22"/>
<ellipse cx="417.444" cy="300.473" rx="33.2599" ry="33.0302" fill="#F9F4EE"/>
</svg>
