<svg width="1024" height="1024" viewBox="0 0 1024 1024" fill="none" xmlns="http://www.w3.org/2000/svg">
<g clip-path="url(#clip0_136_32)">
<g filter="url(#filter0_d_136_32)">
<path d="M375.331 774.8L364.13 779L247.93 444.4L148.53 731.4L112.13 774.8L100.93 779L-55.8695 326.8C-60.0695 316.533 -64.9695 308.833 -70.5695 303.7C-75.7029 298.567 -83.8695 296 -95.0695 296H-118.87V275H54.7305V296H37.9305C17.3971 296 7.13047 302.067 7.13047 314.2C7.13047 317.933 8.99714 324.933 12.7305 335.2L134.53 689.4L233.93 402.4L207.33 326.8C201.73 311.867 196.83 303 192.63 300.2C188.43 297.4 182.597 296 175.13 296H169.53V275H326.33V296H301.131C279.664 296 268.93 301.6 268.93 312.8C268.93 318.4 270.797 325.867 274.53 335.2L397.731 689.4L518.131 343.6C523.73 324.933 526.53 313.267 526.53 308.6C526.53 303.467 523.264 300.2 516.73 298.8C510.664 296.933 498.064 296 478.931 296H469.131V275H606.331V296H593.731C578.797 296 568.997 298.1 564.33 302.3C559.664 306.5 554.997 315.6 550.331 329.6L411.73 731.4L375.331 774.8ZM695.958 277.8C706.691 277.8 714.858 281.3 720.458 288.3C726.524 295.3 729.558 304.4 729.558 315.6C729.558 326.333 725.124 335.433 716.258 342.9C707.391 349.9 697.591 353.4 686.858 353.4C676.591 353.4 668.424 349.9 662.358 342.9C656.758 335.9 653.958 327.267 653.958 317C653.958 306.267 658.391 297.167 667.258 289.7C676.124 281.767 685.691 277.8 695.958 277.8ZM772.958 765H631.558V745.4H642.758C655.358 745.4 663.291 743.3 666.558 739.1C670.291 734.9 672.158 728.133 672.158 718.8V508.8C672.158 499.933 669.124 493.633 663.058 489.9C657.458 485.7 646.958 483.6 631.558 483.6V464C640.891 464 654.891 460.733 673.558 454.2C692.691 447.2 707.158 440.667 716.958 434.6L729.558 431.8V714.6C729.558 722.067 729.791 727.433 730.258 730.7C731.191 733.967 733.991 737.233 738.658 740.5C743.324 743.767 750.558 745.4 760.358 745.4H772.958V765ZM1190.32 765H1103.52L952.316 578.8L924.316 602.6V714.6C924.316 722.067 924.55 727.433 925.016 730.7C925.95 733.967 928.75 737.233 933.416 740.5C938.55 743.767 946.25 745.4 956.516 745.4H969.116V765H827.716V745.4H836.116C846.383 745.4 853.85 743.767 858.516 740.5C863.65 737.233 866.45 733.967 866.916 730.7C867.85 727.433 868.316 722.067 868.316 714.6V303C868.316 294.133 865.05 287.833 858.516 284.1C852.45 279.9 841.716 277.8 826.316 277.8V258.2C836.583 258.2 851.283 255.633 870.416 250.5C890.016 245.367 904.25 240 913.116 234.4L924.316 231.6V562L1029.32 478C1036.78 471.933 1040.52 467.733 1040.52 465.4C1040.52 461.667 1034.92 459.8 1023.72 459.8H1018.12V438.8H1135.72V459.8H1128.72C1110.98 459.8 1096.52 464.467 1085.32 473.8L998.516 545.2L1135.72 714.6C1151.12 735.133 1164.18 745.4 1174.92 745.4H1190.32V765ZM1272.91 277.8C1283.64 277.8 1291.81 281.3 1297.41 288.3C1303.48 295.3 1306.51 304.4 1306.51 315.6C1306.51 326.333 1302.08 335.433 1293.21 342.9C1284.34 349.9 1274.54 353.4 1263.81 353.4C1253.54 353.4 1245.38 349.9 1239.31 342.9C1233.71 335.9 1230.91 327.267 1230.91 317C1230.91 306.267 1235.34 297.167 1244.21 289.7C1253.08 281.767 1262.64 277.8 1272.91 277.8ZM1349.91 765H1208.51V745.4H1219.71C1232.31 745.4 1240.24 743.3 1243.51 739.1C1247.24 734.9 1249.11 728.133 1249.11 718.8V508.8C1249.11 499.933 1246.08 493.633 1240.01 489.9C1234.41 485.7 1223.91 483.6 1208.51 483.6V464C1217.84 464 1231.84 460.733 1250.51 454.2C1269.64 447.2 1284.11 440.667 1293.91 434.6L1306.51 431.8V714.6C1306.51 722.067 1306.74 727.433 1307.21 730.7C1308.14 733.967 1310.94 737.233 1315.61 740.5C1320.28 743.767 1327.51 745.4 1337.31 745.4H1349.91V765Z" fill="#27272A"/>
</g>
</g>
<defs>
<filter id="filter0_d_136_32" x="-123.87" y="226.6" width="1488.78" height="567.4" filterUnits="userSpaceOnUse" color-interpolation-filters="sRGB">
<feFlood flood-opacity="0" result="BackgroundImageFix"/>
<feColorMatrix in="SourceAlpha" type="matrix" values="0 0 0 0 0 0 0 0 0 0 0 0 0 0 0 0 0 0 127 0" result="hardAlpha"/>
<feOffset dx="5" dy="5"/>
<feGaussianBlur stdDeviation="5"/>
<feComposite in2="hardAlpha" operator="out"/>
<feColorMatrix type="matrix" values="0 0 0 0 0 0 0 0 0 0 0 0 0 0 0 0 0 0 0.25 0"/>
<feBlend mode="normal" in2="BackgroundImageFix" result="effect1_dropShadow_136_32"/>
<feBlend mode="normal" in="SourceGraphic" in2="effect1_dropShadow_136_32" result="shape"/>
</filter>
<clipPath id="clip0_136_32">
<rect width="1024" height="1024" rx="75" fill="white"/>
</clipPath>
</defs>
</svg>
