<svg width="2408" height="643" viewBox="0 0 2408 643" fill="none" xmlns="http://www.w3.org/2000/svg">
<path d="M351.5 546C338.167 546 326 544.167 315 540.5C304.333 537.167 295.5 533.333 288.5 529V476C294.833 481.333 302.333 486.167 311 490.5C320 494.5 330.5 496.5 342.5 496.5C362.5 496.5 378.333 490.333 390 478C401.667 465.333 407.5 445.833 407.5 419.5C407.5 401.167 404.667 386.667 399 376C393.667 365 386.167 357 376.5 352C366.833 347 356 344.5 344 344.5C334.667 344.5 326.5 345.667 319.5 348C312.5 350 306.5 352.5 301.5 355.5V513.5H240V349.5C240 341.833 241.5 335.5 244.5 330.5C247.5 325.5 252.5 320.833 259.5 316.5C269.167 310.833 281.167 306 295.5 302C309.833 297.667 326 295.5 344 295.5C368.333 295.5 390 299.833 409 308.5C428 316.833 442.833 330.167 453.5 348.5C464.5 366.833 470 390.5 470 419.5C470 447.5 464.833 470.833 454.5 489.5C444.5 508.167 430.5 522.333 412.5 532C394.833 541.333 374.5 546 351.5 546ZM301.5 496.5V628.5C298.833 629.5 295 630.333 290 631C285 632 279.5 632.5 273.5 632.5C262.167 632.5 253.667 630.333 248 626C242.667 621.667 240 614.167 240 603.5V496L301.5 496.5ZM616.691 499.5C626.691 499.5 635.691 498.5 643.691 496.5C651.691 494.5 657.525 492.333 661.191 490V433L611.691 438C598.025 439 587.525 442 580.191 447C573.191 451.667 569.691 458.667 569.691 468C569.691 477.667 573.525 485.333 581.191 491C588.858 496.667 600.691 499.5 616.691 499.5ZM614.191 295.5C646.858 295.5 672.858 302.5 692.191 316.5C711.525 330.167 721.191 351.833 721.191 381.5V496.5C721.191 504.5 719.191 510.833 715.191 515.5C711.525 520.167 706.691 524.333 700.691 528C691.358 533.333 679.525 537.667 665.191 541C650.858 544.667 634.691 546.5 616.691 546.5C583.358 546.5 557.191 540.167 538.191 527.5C519.191 514.5 509.691 495.333 509.691 470C509.691 447.667 516.691 430.667 530.691 419C545.025 407 565.691 399.667 592.691 397L660.691 390V381C660.691 367.667 656.025 358 646.691 352C637.691 346 624.858 343 608.191 343C595.191 343 582.525 344.667 570.191 348C557.858 351.333 546.858 355.333 537.191 360C533.858 357.333 530.858 353.667 528.191 349C525.525 344.333 524.191 339.5 524.191 334.5C524.191 322.5 530.858 313.667 544.191 308C553.525 303.667 564.358 300.5 576.691 298.5C589.358 296.5 601.858 295.5 614.191 295.5ZM845.934 359V427.5H784.434V354C784.434 345.667 786.434 338.667 790.434 333C794.434 327 800.1 321.5 807.434 316.5C817.434 310.5 830.1 305.5 845.434 301.5C860.767 297.5 877.267 295.5 894.934 295.5C926.267 295.5 941.934 305.167 941.934 324.5C941.934 329.167 941.267 333.5 939.934 337.5C938.6 341.167 936.934 344.5 934.934 347.5C931.6 346.833 927.434 346.333 922.434 346C917.434 345.333 912.1 345 906.434 345C894.434 345 883.1 346.333 872.434 349C862.1 351.333 853.267 354.667 845.934 359ZM784.434 407L845.934 410V538C843.267 539 839.434 539.833 834.434 540.5C829.434 541.5 823.934 542 817.934 542C806.6 542 798.1 540 792.434 536C787.1 531.667 784.434 524.167 784.434 513.5V407ZM1040.76 359V427.5H979.258V354C979.258 345.667 981.258 338.667 985.258 333C989.258 327 994.924 321.5 1002.26 316.5C1012.26 310.5 1024.92 305.5 1040.26 301.5C1055.59 297.5 1072.09 295.5 1089.76 295.5C1121.09 295.5 1136.76 305.167 1136.76 324.5C1136.76 329.167 1136.09 333.5 1134.76 337.5C1133.42 341.167 1131.76 344.5 1129.76 347.5C1126.42 346.833 1122.26 346.333 1117.26 346C1112.26 345.333 1106.92 345 1101.26 345C1089.26 345 1077.92 346.333 1067.26 349C1056.92 351.333 1048.09 354.667 1040.76 359ZM979.258 407L1040.76 410V538C1038.09 539 1034.26 539.833 1029.26 540.5C1024.26 541.5 1018.76 542 1012.76 542C1001.42 542 992.924 540 987.258 536C981.924 531.667 979.258 524.167 979.258 513.5V407ZM1402.66 420.5C1402.66 446.167 1397.66 468.5 1387.66 487.5C1377.66 506.167 1363.5 520.667 1345.16 531C1327.16 541 1305.83 546 1281.16 546C1256.5 546 1235 541 1216.66 531C1198.33 520.667 1184 506.167 1173.66 487.5C1163.66 468.833 1158.66 446.5 1158.66 420.5C1158.66 394.833 1163.83 372.667 1174.16 354C1184.5 335.333 1198.83 321 1217.16 311C1235.5 300.667 1256.83 295.5 1281.16 295.5C1305.5 295.5 1326.66 300.667 1344.66 311C1363 321 1377.16 335.5 1387.16 354.5C1397.5 373.167 1402.66 395.167 1402.66 420.5ZM1281.16 344.5C1262.83 344.5 1248.33 351.167 1237.66 364.5C1227.33 377.833 1222.16 396.5 1222.16 420.5C1222.16 445.167 1227.33 464.167 1237.66 477.5C1248 490.5 1262.5 497 1281.16 497C1299.5 497 1313.83 490.333 1324.16 477C1334.5 463.667 1339.66 444.833 1339.66 420.5C1339.66 396.833 1334.5 378.333 1324.16 365C1313.83 351.333 1299.5 344.5 1281.16 344.5ZM1458.83 407L1520.33 410V538C1517.67 539 1513.83 539.833 1508.83 540.5C1503.83 541.5 1498.33 542 1492.33 542C1481 542 1472.5 540 1466.83 536C1461.5 531.667 1458.83 524.167 1458.83 513.5V407ZM1520.33 441.5L1458.83 438.5V214C1461.17 213.333 1464.83 212.5 1469.83 211.5C1475.17 210.5 1480.67 210 1486.33 210C1498.33 210 1507 212.167 1512.33 216.5C1517.67 220.5 1520.33 227.833 1520.33 238.5V441.5ZM1629.67 482.5C1624.33 471.5 1618.17 457.833 1611.17 441.5C1604.5 424.833 1597.5 405.667 1590.17 384C1582.83 362 1575.33 337.833 1567.67 311.5C1571.33 307.5 1576 304.167 1581.67 301.5C1587.33 298.833 1593.5 297.5 1600.17 297.5C1608.83 297.5 1615.83 299.5 1621.17 303.5C1626.83 307.167 1631.17 314 1634.17 324C1642.83 350 1651.5 375.667 1660.17 401C1669.17 426.333 1678.67 452.167 1688.67 478.5H1690.67C1697 463.833 1703.33 446.667 1709.67 427C1716 407 1722 386.333 1727.67 365C1733.67 343.667 1738.67 323.333 1742.67 304C1746.67 302 1750.83 300.5 1755.17 299.5C1759.5 298.167 1764.17 297.5 1769.17 297.5C1777.5 297.5 1784.67 299.5 1790.67 303.5C1797 307.167 1800.17 313.5 1800.17 322.5C1800.17 330.5 1798.67 341.167 1795.67 354.5C1793 367.5 1789.17 382 1784.17 398C1779.17 414 1773.33 430.667 1766.67 448C1760.33 465.333 1753.5 482.167 1746.17 498.5C1739.17 514.5 1732 529 1724.67 542C1707.67 572.333 1692 595.167 1677.67 610.5C1663.33 626.167 1649.5 634 1636.17 634C1625.83 634 1617.33 630.833 1610.67 624.5C1604.33 618.5 1600.5 611 1599.17 602C1606.5 595.667 1614.17 588 1622.17 579C1630.5 570.333 1638.5 561 1646.17 551C1653.83 541 1660.33 531.167 1665.67 521.5C1660 519.833 1654.33 516.5 1648.67 511.5C1643 506.167 1636.67 496.5 1629.67 482.5ZM1871.45 539H1846.95C1843.28 535.667 1840.28 531.667 1837.95 527C1835.61 522.333 1834.45 517.167 1834.45 511.5C1834.45 506.167 1835.61 501.167 1837.95 496.5C1840.61 491.5 1843.61 486.667 1846.95 482L1994.95 302.5H2016.95C2020.95 305.833 2024.11 309.833 2026.45 314.5C2028.78 319.167 2029.95 324.333 2029.95 330C2029.95 335 2028.78 340 2026.45 345C2024.11 350 2020.95 354.667 2016.95 359L1871.45 539ZM2005.45 302.5V351H1843.45C1841.78 348.333 1840.28 344.833 1838.95 340.5C1837.61 336.167 1836.95 331.667 1836.95 327C1836.95 318.333 1838.78 312.167 1842.45 308.5C1846.45 304.5 1851.78 302.5 1858.45 302.5H2005.45ZM1860.95 539V490.5H2028.45C2029.78 492.833 2031.11 496.167 2032.45 500.5C2033.78 504.833 2034.45 509.5 2034.45 514.5C2034.45 522.833 2032.45 529 2028.45 533C2024.78 537 2019.61 539 2012.95 539H1860.95ZM2105.87 452L2103.37 409L2237.37 389C2236.37 376.333 2231.53 365.333 2222.87 356C2214.2 346.667 2201.53 342 2184.87 342C2167.87 342 2153.7 348 2142.37 360C2131.03 371.667 2125.2 388.5 2124.87 410.5L2126.37 436.5C2129.37 457.833 2137.53 473.5 2150.87 483.5C2164.53 493.5 2181.7 498.5 2202.37 498.5C2216.37 498.5 2229.37 496.5 2241.37 492.5C2253.37 488.167 2262.87 483.5 2269.87 478.5C2274.53 481.5 2278.2 485.333 2280.87 490C2283.87 494.333 2285.37 499.167 2285.37 504.5C2285.37 513.167 2281.53 520.667 2273.87 527C2266.2 533 2255.87 537.667 2242.87 541C2229.87 544.333 2215.03 546 2198.37 546C2172.7 546 2149.87 541.333 2129.87 532C2110.2 522.333 2094.7 508 2083.37 489C2072.37 470 2066.87 446.333 2066.87 418C2066.87 397.667 2070.03 379.833 2076.37 364.5C2082.7 349.167 2091.2 336.5 2101.87 326.5C2112.87 316.167 2125.53 308.5 2139.87 303.5C2154.2 298.167 2169.2 295.5 2184.87 295.5C2206.87 295.5 2226.03 300 2242.37 309C2259.03 317.667 2272.03 329.833 2281.37 345.5C2291.03 361.167 2295.87 379.167 2295.87 399.5C2295.87 408.833 2293.37 415.833 2288.37 420.5C2283.7 424.833 2277.03 427.5 2268.37 428.5L2105.87 452Z" fill="#2E2E2E"/>
<path d="M251.38 268.185C252.144 268.832 252.909 269.479 253.697 270.146C254.482 270.804 255.267 271.461 256.076 272.139C263.182 278.233 268.983 285.015 274.743 292.357C275.396 293.188 275.396 293.188 276.063 294.036C278.86 297.656 281.173 301.378 283.475 305.334C287.295 311.194 291.699 313.615 297.78 316.704C314.928 325.528 327.994 342.989 334.426 360.862C342.187 386.476 342.256 413.022 329.525 436.978C327.216 441.056 324.817 445.044 322.049 448.832C321.386 448.832 320.722 448.832 320.039 448.832C320.039 449.491 320.039 450.15 320.039 450.829C317.652 451.453 317.652 451.453 315.013 451.827C312.636 449.467 312.384 447.574 311.704 444.38C310.19 437.272 308.729 430.806 302.951 425.873C300.308 424.224 297.811 423.072 294.909 421.88C293.862 423.065 292.815 424.25 291.768 425.436C291.127 426.162 290.485 426.887 289.824 427.635C287.613 430.163 285.451 432.729 283.306 435.313C281.842 436.853 281.842 436.853 279.766 438.094C277.578 439.711 277.578 439.711 277.351 442.399C277.366 443.42 277.381 444.441 277.396 445.493C277.407 447.234 277.407 447.234 277.417 449.011C277.458 450.901 277.458 450.901 277.499 452.829C277.515 454.824 277.531 456.819 277.546 458.814C277.573 461.621 277.617 464.428 277.662 467.234C277.759 473.413 277.828 479.592 277.876 485.771C277.881 486.434 277.887 487.097 277.892 487.779C277.983 501.731 277.187 515.343 273.549 528.879C273.332 529.709 273.114 530.539 272.891 531.393C262.659 569.082 238.304 602.292 204.456 622.188C178.417 636.99 149.549 642.593 119.793 642.669C118.644 642.675 117.495 642.682 116.311 642.689C112.56 642.708 108.809 642.72 105.059 642.73C103.125 642.736 103.125 642.736 101.152 642.742C95.0445 642.761 88.9369 642.775 82.8292 642.784C75.8082 642.794 68.7875 642.82 61.7666 642.86C55.6551 642.894 49.5437 642.906 43.4322 642.91C40.842 642.915 38.2518 642.926 35.6617 642.945C32.0484 642.969 28.4359 642.968 24.8225 642.961C23.2222 642.98 23.2222 642.98 21.5895 643C15.6669 642.958 12.0743 642.526 7.42585 638.499C0.722344 631.539 0.0910564 625.473 0.127497 616.27C0.123652 615.24 0.119802 614.209 0.115841 613.148C0.10547 609.695 0.109472 606.243 0.113463 602.79C0.109093 600.314 0.103883 597.837 0.0978952 595.361C0.0858205 589.33 0.083272 583.298 0.0856249 577.267C0.0874197 572.357 0.0856664 567.446 0.0813916 562.536C0.0807933 561.836 0.0801828 561.136 0.0795664 560.415C0.0783483 558.993 0.0771387 557.57 0.075916 556.148C0.0649821 542.808 0.0671477 529.468 0.0732778 516.128C0.0784588 503.964 0.0671976 491.8 0.0480469 479.636C0.0284933 467.119 0.0202953 454.602 0.0240584 442.085C0.025971 435.069 0.0235624 428.053 0.00925732 421.037C-0.00408842 414.425 -0.00135091 407.813 0.0116807 401.201C0.0140406 398.788 0.0113778 396.375 0.00301478 393.963C-0.0535114 376.371 0.637767 358.785 6.10654 341.895C6.36205 341.083 6.61755 340.271 6.8808 339.434C18.1628 304.782 41.2616 274.175 72.763 255.173C73.4926 254.732 74.2223 254.291 74.9741 253.838C130.32 221.213 201.981 227.571 251.38 268.185Z" fill="#59AF46"/>
<path d="M0.52619 446.203C21.635 437.218 15.467 439.714 15.467 439.714C15.467 439.714 15.4833 439.594 21.635 437.218C47.2738 428.731 76.6 430.427 101.111 441.621C107.327 444.84 112.765 448.735 118.133 453.19C118.814 453.722 119.496 454.253 120.198 454.801C132.889 465.075 141.356 480.536 145.273 496.115C145.45 496.769 145.627 497.422 145.809 498.095C152.472 524.51 144.321 551.975 130.823 574.789C126.824 581.323 122.196 587.189 117.128 592.945C116.517 593.672 115.907 594.399 115.278 595.148C110.961 599.568 109.955 600.566 104.93 605.557C102.144 608.323 101.914 608.552 99.401 611.048C86.8062 627.158 78.2921 632.011 78.2921 632.011C74.7729 635.006 74.2713 636.004 70.7532 638.998C70.7532 639.328 66.2298 642.481 64.2195 642.492C55.6737 642.539 62.7497 642.389 54.1676 642.492C50.1991 642.503 46.0738 642.47 42.1054 642.492C38.2731 642.514 34.8807 642.487 31.0483 642.492C29.5888 642.496 28.4871 642.481 27.0276 642.492C24.9777 642.507 22.0412 642.493 19.9913 642.492C18.8261 642.497 17.3889 642.488 16.1884 642.492C11.9274 642.177 7.64437 639.015 5.68945 635.214C5.20873 634.607 4.72801 634 4.23272 633.374C3.73904 632.767 3.41175 632.636 2.90311 632.011C0.372465 628.54 0.399761 625.549 0.398452 621.29C0.396884 620.604 0.395316 619.917 0.3937 619.21C0.389672 616.894 0.392876 614.578 0.396029 612.262C0.394666 610.603 0.392877 608.944 0.390691 607.285C0.386078 602.743 0.387905 598.2 0.391072 593.657C0.393634 588.824 0.391249 583.991 0.389679 579.158C0.387841 570.956 0.390268 562.754 0.395047 554.552C0.399798 546.307 0.400001 538.061 0.395047 529.815C0.362862 474.984 -0.31736 501.028 0.52619 446.203Z" fill="#057D31"/>
<path d="M183.521 302.714C198.878 316.074 206.868 333.002 208.462 353.001C209.167 371.3 203.623 389.393 191.185 403.1C179.008 415.942 163.188 424.271 145.226 425.245C125.259 425.715 108.935 420.495 93.5096 407.452C85.9139 400.177 80.4303 391.752 76.7827 381.95C76.3888 380.941 75.9948 379.932 75.589 378.893C69.4018 360.801 71.9828 341.862 79.9867 324.8C89.2463 307.465 103.959 295.985 122.597 289.944C144.234 284.719 165.954 288.987 183.521 302.714Z" fill="#FBF5ED"/>
<path d="M270.973 310.887C271.867 310.888 272.76 310.888 273.681 310.889C277.618 310.915 281.339 310.889 284.858 311.573C286.365 311.573 286.848 312.072 287.873 312.072C311.495 321.556 324.276 337.854 333.393 358.99C341.89 382.605 342.895 409.631 332.252 432.718C329.309 438.677 326.478 443.957 322.552 449.331C321.547 450.329 321.847 450.031 321.044 450.829C320.039 451.827 320.542 451.328 320.039 451.827C318.029 453.324 318.029 453.823 315.516 453.823C313.003 451.328 312.175 448.532 311.495 445.338C309.981 438.23 308.729 431.804 302.951 426.871C300.308 425.222 297.811 424.07 294.909 422.878C293.862 424.063 292.815 425.248 291.768 426.434C291.185 427.094 290.602 427.754 290.001 428.434C288.826 429.776 287.659 431.126 286.531 432.507C283.007 436.764 279.31 440.133 274.806 443.342C274.154 443.808 273.502 444.274 272.83 444.755C254.888 457.283 254.888 457.283 244.882 456.424C240.562 455.26 237.764 452.888 234.598 449.83C233.496 448.794 233.496 448.794 232.372 447.736C222.594 437.794 216.729 425.325 213.489 411.897C213.313 411.236 213.137 410.575 212.956 409.894C211.151 402.341 211.105 394.774 211.106 387.057C211.102 384.778 211.065 382.502 211.027 380.224C210.881 361.415 216.077 343.913 229.455 330.1C230.82 328.735 232.206 327.391 233.593 326.048C234.277 325.359 234.961 324.671 235.666 323.962C245.49 314.673 257.653 310.702 270.973 310.887Z" fill="#FCBD1A"/>
<path d="M164.07 327.264C172.66 334.286 178.421 342.56 179.756 353.714C180.117 365.092 177.653 374.162 170.25 382.944C162.492 390.724 153.774 394.202 142.874 394.428C132.351 394.381 123.443 391.286 115.734 383.966C108.692 375.894 105.533 367.221 105.557 356.619C105.558 355.872 105.56 355.126 105.562 354.356C105.692 348.502 106.761 344.019 109.954 339.025C110.556 337.996 111.157 336.966 111.776 335.905C124.668 319.079 146.338 314.57 164.07 327.264Z" fill="#2E2E2E"/>
<path d="M210.976 382.948C216.497 386.284 222.313 389.646 227.248 393.804C245.718 408.733 268.774 416.889 290.386 419.883C295.412 421.88 293.401 420.882 295.412 421.88C290.64 436.28 271.166 447.335 259.701 453.824C254.013 457.043 247.21 458.815 242.214 455.82C237.717 453.325 236.746 452.272 234.219 449.831C233.117 448.794 232.72 448.333 232.72 448.333C230.222 446.836 215.733 427.869 213.235 410.899C213.009 410.109 212.967 409.717 212.735 408.903C210.644 400.568 210.807 391.472 210.976 382.948Z" fill="#E75D22"/>
<ellipse cx="157.702" cy="346.512" rx="12.5648" ry="12.4781" fill="#F9F4EE"/>
</svg>
